/* XPM */
static char * antique_phone_xpm[] = {
"25 31 2 1",
" 	c None",
".	c #000000",
"             ...         ",
"            .   .        ",
"           . ... .       ",
"           . ... .       ",
"  .....    . ... .       ",
"..    ..    .   .        ",
".     ...    ...         ",
".            ...         ",
"..   ...........         ",
" .    ...    ...         ",
"  .   ...    ...         ",
"  .   ...   .....        ",
"  .   ...   .....        ",
"  .   ...   .....        ",
" .   .....  .....        ",
" .   .....  .....        ",
".           .....        ",
".           .....        ",
".            ...         ",
".            ...         ",
".          ........      ",
"..       ............    ",
" .      ....     .....   ",
"  .    ...   . .   ....  ",
"  ..  ...  . ... .  .... ",
"    .....   .....   .... ",
"     .... . ..... . .....",
"     ....    ...    .....",
"      ....  .   .  ..... ",
"       .....  .  .....   ",
"           ........      "};
