/* XPM */
static char * bipperl_xpm[] = {
"20 25 2 1",
" 	c None",
".	c #000000",
"      ...           ",
"    .......         ",
"  ....   ...        ",
"  ..       ..       ",
" ..         ..      ",
"..           ..     ",
"..           ..     ",
".  .    .     ..    ",
".  .    .      ..   ",
"..  . .      .  ..  ",
".. ....      .   .. ",
" ..          .    . ",
" ..         ..   .. ",
" ...     ....     ..",
" . .......         .",
" .           .     .",
" ..          ..    .",
"  ...         ..  ..",
"   ...         .....",
"    ...         ..  ",
"     ...      ...   ",
"    ..............  ",
"   ..   .    .   .. ",
"   ..   .    .   .. ",
"    .....    .....  "};
