/* XPM */
static char * panda_xpm[] = {
"19 29 2 1",
" 	c None",
".	c #000000",
"             ..... ",
" ...        .......",
".....   ...........",
"........      .....",
".....          ....",
"....            .. ",
" ..              ..",
"  .          ...  .",
" .  ...     ..... .",
" . .....    ..  . .",
" ...  ..    .. .. .",
" ... ... .. ..... .",
" . ....  .   ......",
" .  ..     .     . ",
" ..     ....    .. ",
"  ..         ...   ",
"    .............. ",
"  .......     .....",
"  ......      .....",
"   ....        ... ",
"     ..        .   ",
"      .        .   ",
"      ..       .   ",
"      ....   ..    ",
"      .... ....    ",
"      .... ....    ",
"      .... ....    ",
"      ... ....     ",
"          ....     "};
