/* XPM */
static char * baby_mario_xpm[] = {
"16 19 2 1",
" 	c None",
".	c #000000",
"        ......  ",
"      ...    .. ",
"     .        ..",
"    ..         .",
"   ..          .",
"  ..          . ",
" ..    .......  ",
".    .......... ",
".   ... . . ....",
". ..    . . ..  ",
"....       .  . ",
" .....        . ",
"    ...   ....  ",
"   ..  ......   ",
"  . .   . ......",
"  . .  ...  .  .",
"  .  ...    .  .",
"   .    .  .  . ",
"    ....... ..  "};
