/* XPM */
static char * bass_clef_xpm[] = {
"17 20 2 1",
" 	c None",
".	c #000000",
"    ......       ",
"   ..   ...      ",
"  ..     ...     ",
"  ...    ....  ..",
" .....    ...  ..",
" ......   ....   ",
" ......   ....   ",
"  ....    ....   ",
"   ...    .... ..",
"         ..... ..",
"         ....    ",
"         ....    ",
"        ....     ",
"        ....     ",
"       ....      ",
"       ...       ",
"     ....        ",
"    ....         ",
"  ...            ",
"...              "};
