/* XPM */
static char * bike_xpm[] = {
"21 13 2 1",
" 	c None",
".	c #000000",
"     ...             ",
"    ..               ",
"   ..         ...    ",
"    .          .     ",
"  .................. ",
" .  ...       .. . . ",
". ... ..     .. ... .",
" . . . ..   .. . . . ",
".  .  . .. .. .  .  .",
".  .  .  .......... .",
".     .   .   .  .  .",
" .   .         .   . ",
"  ...           ...  "};
