/* XPM */
static char * bird_xpm[] = {
"28 30 2 1",
" 	c None",
".	c #000000",
"                ...         ",
"            ..... ...       ",
"           .     .  ..      ",
"           .  .........     ",
"           .  ............. ",
"          ..        ....... ",
"         .......     ..     ",
"       ...........  .       ",
"       ........... .        ",
"      ............ ..       ",
"      ............  .       ",
"     .......... ..  .       ",
"     ............  ..       ",
"     ........ ...  .        ",
"     ......  ...   .        ",
"    .....  ....    .   ...  ",
"    ..........    .    .....",
"    ........      .    .....",
"    ........     ..    .....",
"...................... .....",
"............................",
"............................",
"    ......      ............",
"    ......          ........",
"    .....             ......",
"   .....               .....",
"   .....               .....",
"   .....               .....",
"     ...               .....",
"                      ......"};
