/* XPM */
static char * carlthecat_xpm[] = {
"18 24 2 1",
" 	c None",
".	c #000000",
"      .....   ..  ",
"    ............  ",
".....  ...  .. .  ",
".. .         ...  ",
" ..   .   ..  .   ",
"  . ...   .   .   ",
"  .    ..    ..   ",
"  .    ...   ..   ",
"  .   .  .   .    ",
"   .         .    ",
"   ... ......  .. ",
"    ......... ....",
"   .. ....  . .  .",
"   ..       ...  .",
"   .        ... ..",
"   .        ... . ",
"   .        .. .. ",
"   .        . ..  ",
"  ... .  .  ...   ",
"  ... .  .  ..    ",
"  . . .  . ...    ",
"  . ...  ... .    ",
"   ....  ....     ",
"     ..... .      "};
