/* XPM */
static char * clausthecat_xpm[] = {
"16 21 2 1",
" 	c None",
".	c #000000",
"          ...   ",
"  ...    ....   ",
"  ....   .....  ",
" .............  ",
" ... .....  ..  ",
"..   .  ..   .  ",
"..        .. .. ",
".  ..  .  ..  . ",
".  ..  .     .. ",
".      . .   .  ",
" .   ....   ..  ",
" ...  . .....   ",
"   .....  ..    ",
"   ..     ..    ",
"   ..     .. ...",
"   ..      .... ",
"   . .   . ...  ",
"   . .   . ..   ",
"   . .   . .    ",
"   . .   ...    ",
"   ........     "};
