/* XPM */
static char * clef_xpm[] = {
"20 32 2 1",
" 	c None",
".	c #000000",
"         .....      ",
"        .......     ",
"       .........    ",
"       ....  ...    ",
"       ...    ..    ",
"       ...   ...    ",
"       ...  ....    ",
"       ... ....     ",
"        ......      ",
"        ......      ",
"      ......        ",
"    .......         ",
"   ........         ",
" .....    .....     ",
" ....   ..........  ",
"....   ............ ",
"...   ...  ........ ",
"...   ...  ...  ....",
"...   ..   ...   ...",
"...   ...   ..   ...",
" ...   ...  ..   ...",
" ....       ... ... ",
"   ...............  ",
"    ............    ",
"             ...    ",
"      ....    ..    ",
"     ......   ..    ",
"     ......   ..    ",
"    .......   ..    ",
"     .....   ...    ",
"     ..........     ",
"       ......       "};
