/* XPM */
static char * clown_xpm[] = {
"25 30 2 1",
" 	c None",
".	c #000000",
"          ....           ",
"         ......          ",
"         ......          ",
"    ................     ",
"   ....          ....    ",
"   ..... ..  .. .....    ",
" .  .... . .. . ....   . ",
"..  ....   ..   ...    ..",
"...    .. .  . ..    ....",
". ..    . .... .     .  .",
".  ..   ..    ..    ..  .",
".   .. . .....  .. ..  ..",
"..   ...         ...  .. ",
" ..  ..          ..  .   ",
"  .. .. ... .... .. ..   ",
"   .......... .......    ",
"    ..   .    .   ..     ",
"     ..  . .. .   .      ",
"      .  . .. .  ..      ",
"      .  .    .  .       ",
"      .. . .. .  .       ",
"       ... .. . ..       ",
"        ..    ...        ",
"        ........         ",
"        .  ..  .         ",
"        .  ..  .         ",
"   ..  ..  ..  ..  ..    ",
"  ....................   ",
"  ....................   ",
"  .........  .........   "};
