/* XPM */
static char * crocodile_xpm[] = {
"40 20 2 1",
" 	c None",
".	c #000000",
"         .....                          ",
"      ......                            ",
"    ......                              ",
"   ......                               ",
" .......                                ",
" ......                                 ",
".......                                 ",
"... ...                                 ",
"...  .........                          ",
"....   .............        ..          ",
" ...           .................        ",
"  ..                  ....     ..       ",
"   ..   .......              .......... ",
"    ... ... ...                     ....",
"      ...  ....      ..            .....",
"        ......       ....   ........... ",
"         ................ .......       ",
"         ....... ........  .......      ",
"          ......      ....     ......   ",
"                       .......          "};
