/* XPM */
static char * donald_xpm[] = {
"26 32 2 1",
" 	c None",
".	c #000000",
"  .......                 ",
" ..      ..               ",
" .         .              ",
" .          ..            ",
"  .         . ....        ",
"   .              ..      ",
"    . ........     .      ",
"     ... . ....    ..     ",
"    ....   .....   ..     ",
"   .   .    .  .... ..    ",
"  .     .  .   .     ..   ",
"  . ..       .. .    ...  ",
".. .  .     .  . .    ..  ",
". .    .   .   . ..   ... ",
". .    .   .   .  .    ...",
". .     . .     . .    .  ",
". .     . .     . .       ",
". .  .. . . ..  . .       ",
" ..  .. . . ..  ..        ",
". .  .........  ...       ",
". .....     ....  .       ",
"..              . .       ",
" .    ......    ..        ",
" .              .         ",
" .    .......    .        ",
"  ....  . .  ....         ",
"    . .  .   . .          ",
"    . .     . .           ",
"    . .     . .           ",
"     . ..... .            ",
"      .     .             ",
"       .....              "};
