/* XPM */
static char * elephant_xpm[] = {
"40 22 2 1",
" 	c None",
".	c #000000",
"                                  ..... ",
"                                 ...... ",
"                 .....          ........",
"                ........      ..... ....",
"           .......    ..     .....   ...",
"         ........             .....  ...",
"        ....  ...               ........",
"        ...  ...       ...       .......",
"       ...   ... ........        .......",
"       ..    ...............    ........",
"      ...   ..........    ..    .....   ",
"      ..                         ...    ",
"     ...                         ...    ",
" .. .....                        ..     ",
".....  ...                        .     ",
" ..    ......               ..    .     ",
"       .................  .....  ..     ",
"       ....................  ..  .      ",
"       ....................  ..  .      ",
"       .........  ......... ..  ..      ",
"       ..........  .......... ...       ",
"       ..........   ...........         "};
