/* XPM */
static char * halloween_xpm[] = {
"30 27 2 1",
" 	c None",
".	c #000000",
"                .             ",
"               ..             ",
"              ..              ",
"              ..              ",
"              ..              ",
"              ..              ",
"        .....   ......        ",
"     ...................      ",
"    ......................    ",
"   ........................   ",
"  ....  ..............  ....  ",
" .....  ..............  ..... ",
" ....    ............    .... ",
"....      ..........      ... ",
"............      ............",
".............    .............",
"..............  ..............",
"... .....................  ...",
"....  ..................  ....",
" ...     ............     ... ",
" ....    ....    ....    .... ",
"  ....                  ....  ",
"   .....               ....   ",
"    ......   ....    .....    ",
"     ....... ....  ......     ",
"       ................       ",
"          ..........          "};
