/* XPM */
static char * hourglass_xpm[] = {
"21 26 2 1",
" 	c None",
".	c #000000",
"    .............    ",
" ................... ",
".....................",
".....................",
".....................",
".. .  .........  . ..",
".. .             . ..",
"..  .           .  ..",
"..  .. ...  .  ..  ..",
"..   .. ... . ..   ..",
"..    .  ...  .    ..",
"..     .. . ..     ..",
"..      .....      ..",
"..      .....      ..",
"..     .. . ..     ..",
"..    .   .   .    ..",
"..   ..   .   ..   ..",
"..  ..    .    ..  ..",
".. ..     .     .. ..",
".. .  .   .      . ..",
".. . ...... .... . ..",
"..... ......... .....",
"......  .....   .....",
"........      .......",
"  .................. ",
"     ............    "};
