/* XPM */
static char * mickey_xpm[] = {
"31 32 2 1",
" 	c None",
".	c #000000",
"     ...                       ",
"   .......                     ",
"  .........                    ",
" ..........           .....    ",
" ...........         ........  ",
"............        .......... ",
"............        .......... ",
"............       ............",
"...........        ............",
".................  ............",
" ..........   .................",
"  .......      .   ............",
"   .....            .......... ",
"     ...    ..       ......... ",
"    ....   ...   ..  ........  ",
"    ....   ...  ...  ..        ",
"   .....   ...  ...   ..       ",
"   .....   . .  . .   ..       ",
"   .....              ..       ",
"   ..  .             ...       ",
"   .                 ...       ",
"   . ...    ....    ....       ",
"   .  .    ......     ..       ",
"   .  ..   ......  .   .       ",
"   ..  ..   ....   .. ..       ",
"    .   ..        ... ..       ",
"    ...  ...    ...  ..        ",
"     ...  .......   ..         ",
"       .. .....   ...          ",
"        ..     ....            ",
"         .. ....               ",
"          ....                 "};
