/* XPM */
static char * mobile_phone_xpm[] = {
"7 11 2 1",
" 	c None",
".	c #000000",
"     . ",
"     . ",
" ..... ",
".     .",
". ... .",
". ... .",
".     .",
". . . .",
".     .",
". . . .",
"......."};
