/* XPM */
static char * panda_xpm[] = {
"30 28 2 1",
" 	c None",
".	c #000000",
"   ...   ............   ...   ",
"  ...........    ............ ",
" .........          ..........",
" .......              ........",
" .....                  ......",
"  ...                    .... ",
"  ..     ..        ..     ..  ",
"  ..    ....      .....   ... ",
" ..    ......     ......   .. ",
" ..   .......     .......  .. ",
"..   ........    .........  ..",
"..  ....  ...    ....  ...  ..",
"..  ....  ...    ....  .... ..",
".. ..........     ......... ..",
".. .........       ........ ..",
".. .......          ....... ..",
".. ......             ..... ..",
" .  ...      .....     .... . ",
" ..        .........       .. ",
" ..        .........       .. ",
"  ..        .......       ..  ",
"  ...        .....       ...  ",
"   ...         .        ...   ",
"    ...     .. . ..    ...    ",
"     ....    .....    ...     ",
"      .....    .   .....      ",
"         .............        ",
"          ...........         "};
