/* XPM */
static char * bike_xpm[] = {
"20 8 2 1",
" 	c None",
".	c #000000",
"     .             .",
"                    ",
"...  .  .. ... ..  .",
".  . . .   .  .  . .",
".  . . .   .  .  . .",
"...  .  .. .  .  . .",
".                   ",
".                   "};
