/* XPM */
static char * dog_xpm[] = {
"27 30 2 1",
" 	c None",
".	c #000000",
"            ........       ",
"           ..  .  ....     ",
"          ..  ..   ....    ",
"         .. ... .. .....   ",
"        ....... .. ......  ",
"       .... ...    ... ..  ",
" .     ....         .. ... ",
" ..   .. ..         ..  .. ",
" ..   .. ..         ... .. ",
"...   .. ..     ... ... ...",
"...   .. ..    .... ...  ..",
"..   ..  ..     ... .......",
"...  .. ..  ..      . .....",
"...  .. ..  .....  ..  ... ",
" ... .....  .  .  ..       ",
"  .......   .  .  .        ",
" ...        .. .  ..       ",
" ...         ...   .       ",
" ..                .       ",
" ..                .       ",
" ..                .       ",
" ...              ..       ",
" ....       ....  .        ",
"  .. ......  ..   .        ",
"  .. . ...   ..   .        ",
"  .. . . .   ..   .        ",
"  .  . . .   ..   .        ",
"  .  . . .   ..   .        ",
"  .... ...   ..   .        ",
"         ..........        "};
