/* XPM */
static char * policeman_xpm[] = {
"16 30 2 1",
" 	c None",
".	c #000000",
"     ......     ",
"    ........    ",
"   ..........   ",
"   ....  ....   ",
"   ....  ....   ",
"   ..........   ",
"  ............  ",
"  ..        ..  ",
"   .  .  .  .   ",
"   .  .  .  .   ",
"    .      .    ",
"    .      .    ",
"     ..  ..     ",
"      ....      ",
"   ....  ....   ",
"  .  ......  .  ",
" .............. ",
".... ...... ....",
".... ...... ....",
".... ...... ....",
" .............. ",
"  ............  ",
"   ..........   ",
"    ........    ",
"    ........    ",
"    ........    ",
"    ........    ",
"   ..........   ",
"  ............  ",
"  .....  .....  "};
