/* XPM */
static char * robot_xpm[] = {
"23 31 2 1",
" 	c None",
".	c #000000",
"      ...........      ",
"      .         .      ",
"      ..... .....      ",
"      ..  . .  ..      ",
"      ..  . .  ..      ",
"      ...........      ",
"      ...........      ",
"      .. . . . ..      ",
"      ...........      ",
"                       ",
"   .  ...........  .   ",
"     .............     ",
" ... ............. ... ",
"     .............     ",
".... ............. ....",
"     .............     ",
".... ............. ....",
"     .............     ",
" ..  .............  .. ",
".... ............. ....",
".  . ............. .  .",
" ..   ...........   .. ",
"                       ",
"     ...       ...     ",
"     ...       ...     ",
"     ...       ...     ",
"     ...       ...     ",
"     ...       ...     ",
"                       ",
"    .....     .....    ",
"    .....     .....    "};
