/* XPM */
static char * santa_xpm[] = {
"19 32 2 1",
" 	c None",
".	c #000000",
"      .........    ",
"     ...........   ",
"    .............  ",
"   .          .... ",
"   .          .... ",
"   .... .  .... .. ",
"    .......... .  .",
"    .        . .  .",
"    . ..  .. .  .. ",
"   . .      ...    ",
"   .  ....... .    ",
"   .  .    .  .    ",
"   .    ..    .    ",
"    .        .     ",
"  ....      ....   ",
" ... ........ ...  ",
" ...  . .. .  ...  ",
".....        ..... ",
"......      ...... ",
".......    ....... ",
"........  ........ ",
"........  ........ ",
"........  ........ ",
".   ....  ....   . ",
"..              .. ",
" ..           ...  ",
"   ............    ",
"   ............    ",
"   .    ..    .    ",
"   ..   ..    .    ",
"  ..............   ",
" ................  "};
