/* XPM */
static char * shopping_cart_xpm[] = {
"10 10 2 1",
" 	c None",
".	c #000000",
"..        ",
" .        ",
" .........",
"  . . . . ",
"  ....... ",
"  . . . . ",
"  . . . . ",
"  ....... ",
"   .  .   ",
"  .    .  "};
