/* XPM */
static char * bike_xpm[] = {
"20 21 2 1",
" 	c None",
".	c #000000",
"            .       ",
"           ...      ",
"           ...      ",
"            .       ",
" ..............     ",
"  ...............   ",
"         .........  ",
"        ....... ... ",
"       .......   .. ",
"       ......   ... ",
"     .. ....   ...  ",
"    ...  ..   ...   ",
"   ... ..    ..     ",
"  ... ...           ",
"  .. ...            ",
"    ...             ",
"   ...              ",
"  ... ..            ",
" ... ....           ",
" ..  ....           ",
"      ..            "};
