/* XPM */
static char * zebra_xpm[] = {
"28 30 2 1",
" 	c None",
".	c #000000",
"            .   ..          ",
"  .        .. ...           ",
"  .....  ...........    ..  ",
"  ...... .................  ",
"  ........................  ",
"  ........................  ",
"   . .....................  ",
"   ....     ........ ....   ",
"    .       ....  ..  ...   ",
"   ..         ..  ..   ..   ",
"  ......      .    . .....  ",
"  ..         ..        ...  ",
" ..                      .. ",
" ......             ........",
".....    ..     ..     .....",
"...      ..     ..       ...",
".. ....              ...  ..",
".....    .........    ......",
"...   ................  ....",
"..  ....................  ..",
" .......................... ",
" ......  ..........  ...... ",
" .........................  ",
"  ........................  ",
"  .......................   ",
"   .....................    ",
"    ...................     ",
"     .................      ",
"      ...............       ",
"         .........          "};
